<svg width="37" height="36" viewBox="0 0 37 36" fill="none" xmlns="http://www.w3.org/2000/svg">
<path id="Vector" d="M36.3384 15.5808C36.2691 15.0662 35.8008 14.7034 35.2896 14.7595C35.184 14.7727 35.0818 14.7793 34.9861 14.7793C33.5481 14.7793 32.3739 13.6546 32.3113 12.2199C32.2981 11.9066 32.1299 11.6196 31.866 11.4514C31.5989 11.2865 31.2657 11.2634 30.9788 11.3887C30.6424 11.5339 30.2829 11.6097 29.9135 11.6097C28.4359 11.6097 27.2353 10.4059 27.2353 8.93156C27.2353 8.54237 27.3178 8.16967 27.4761 7.81677C27.5915 7.5694 27.5915 7.28575 27.4827 7.03839C27.3738 6.78772 27.1628 6.59643 26.9022 6.51397C25.794 6.15776 25.0486 5.13202 25.0486 3.96445C25.0486 3.47632 25.1805 2.99478 25.4345 2.5792C25.5796 2.33843 25.6126 2.04489 25.5202 1.77774C25.4279 1.51058 25.2234 1.2962 24.9596 1.19395C22.8982 0.402382 20.7246 0 18.5016 0C8.57733 0 0.5 8.07403 0.5 18.0016C0.5 27.9293 8.57733 36 18.5016 36C28.426 36 36.5 27.926 36.5 18.0016C36.5 17.1969 36.4472 16.3822 36.3384 15.5808ZM18.5016 25.1753C14.5438 25.1753 11.3247 21.9562 11.3247 18.0016C11.3247 14.0471 14.5438 10.8247 18.5016 10.8247C22.4595 10.8247 25.6786 14.0438 25.6786 18.0016C25.6786 21.9595 22.4595 25.1753 18.5016 25.1753Z" fill="white"/>
</svg>
