<svg width="37" height="32" viewBox="0 0 37 32" fill="none" xmlns="http://www.w3.org/2000/svg">
<g id="Vector">
<path d="M36.1269 7.4188L34.5279 3.51546V1.76355C34.5279 0.789977 33.7311 0 32.749 0H4.24819C3.26612 0 2.46925 0.789977 2.46925 1.76355V3.51675L0.870291 7.42268C0.422949 8.5139 0.357738 9.74606 0.802473 10.8386C1.49892 12.5517 3.14222 13.6184 4.93681 13.6184C6.25145 13.6184 7.4474 13.0495 8.26905 12.1237C9.11287 13.0728 10.3088 13.6184 11.5974 13.6184H11.8439C13.109 13.6184 14.2658 13.0779 15.0835 12.2143C15.9221 13.1064 17.105 13.6184 18.3362 13.6184H18.6662C19.8974 13.6184 21.0803 13.1064 21.9189 12.213C22.7366 13.0766 23.8921 13.6184 25.1585 13.6184H25.405C26.6923 13.6184 27.8882 13.0728 28.732 12.1225C29.5537 13.0482 30.7497 13.6184 32.0643 13.6184C33.8589 13.6184 35.5022 12.5517 36.1986 10.8373C36.6421 9.74347 36.5768 8.51132 36.1295 7.4188H36.1269Z" fill="white"/>
<path d="M28.7312 14.7227C27.7335 15.3161 26.5871 15.6355 25.4029 15.6355H25.1577C24.0178 15.6355 22.8975 15.329 21.9194 14.7679C20.9412 15.329 19.8144 15.6355 18.668 15.6355H18.3393C17.1864 15.6355 16.0661 15.329 15.0814 14.7679C14.1032 15.329 12.9829 15.6355 11.8431 15.6355H11.5979C10.4137 15.6355 9.26725 15.3161 8.26954 14.7227C7.27182 15.3161 6.12542 15.6355 4.9412 15.6355C4.2265 15.6355 3.53788 15.5204 2.88708 15.3032V30.7239C2.88708 31.4324 3.46614 32 4.17433 32H8.0113V20.524C8.0113 20.0133 8.42995 19.6047 8.93859 19.6047H13.935C14.4502 19.6047 14.8623 20.0133 14.8623 20.524V32H32.8251C33.5398 32 34.1124 31.4324 34.1124 30.7239V15.3096C33.4681 15.5204 32.7795 15.6355 32.0648 15.6355C30.8806 15.6355 29.7276 15.3161 28.7299 14.7227H28.7312ZM28.9895 24.9406C28.9895 25.4513 28.5773 25.8599 28.0622 25.8599H19.5574C19.0423 25.8599 18.6301 25.4513 18.6301 24.9406V20.524C18.6301 20.0133 19.0423 19.6047 19.5574 19.6047H28.0622C28.5773 19.6047 28.9895 20.0133 28.9895 20.524V24.9406Z" fill="white"/>
</g>
</svg>
