<svg width="30" height="30" viewBox="0 0 30 30" fill="none" xmlns="http://www.w3.org/2000/svg">
<path d="M22.0957 27.75H8.65434C5.54186 27.75 3 25.2024 3 22.0957V8.65434C3 5.54762 5.54762 3 8.65434 3H22.0957C25.2081 3 27.75 5.54762 27.75 8.65434V22.0957C27.75 25.2081 25.2081 27.75 22.0957 27.75Z" fill="#3F342F"/>
<path fill-rule="evenodd" clip-rule="evenodd" d="M21.6349 7.96289H9.78441C8.10712 7.96289 6.74109 9.33469 6.74109 11.0062V18.3724C6.74109 20.0497 8.11289 21.4157 9.78441 21.4157H13.969L14.6894 22.6607L15.3984 23.8884C15.5252 24.1132 15.848 24.1132 15.9806 23.8884L16.6895 22.6607L17.41 21.4157H21.6407C23.3179 21.4157 24.684 20.0439 24.684 18.3724V11.012C24.684 9.33469 23.3122 7.96289 21.6349 7.96289ZM16.5396 13.3579C15.6231 13.3579 14.8796 14.0899 14.8796 14.9948C14.8796 15.8997 15.6231 16.6317 16.5396 16.6317C17.456 16.6317 18.1995 15.8997 18.1995 14.9948C18.1995 14.0899 17.4618 13.3579 16.5396 13.3579ZM16.5396 15.7787C16.1015 15.7787 15.7441 15.4271 15.7441 14.9948C15.7441 14.5625 16.1015 14.2109 16.5396 14.2109C16.9776 14.2109 17.335 14.5625 17.335 14.9948C17.335 15.4271 16.9834 15.7787 16.5396 15.7787ZM10.3377 13.7325C10.5971 13.4962 10.9314 13.3579 11.2887 13.3579C12.1187 13.3579 12.7816 14.0956 12.7816 15.0006C12.7816 15.9055 12.1129 16.6375 11.2887 16.6375C10.9256 16.6375 10.5971 16.4934 10.3377 16.2629V16.5568H9.41547V12.378H10.3377V13.7325ZM10.3434 15.3176C10.4703 15.6115 10.7642 15.8133 11.1043 15.8133C11.5654 15.8133 11.9343 15.4501 11.9343 14.9948C11.9343 14.5395 11.5654 14.1763 11.1043 14.1763C10.7642 14.1763 10.4703 14.3781 10.3434 14.672C10.2973 14.77 10.2743 14.8795 10.2743 14.9948C10.2743 15.1101 10.3031 15.2196 10.3434 15.3176ZM21.0758 13.427V13.6864C20.8164 13.4847 20.4936 13.3636 20.1478 13.3636C19.3005 13.3636 18.6146 14.0726 18.6146 14.9429C18.6146 15.8133 19.3005 16.5222 20.1478 16.5222C20.4994 16.5222 20.8222 16.4012 21.0758 16.1995V16.6375C21.0758 16.6375 20.9836 17.0698 20.338 17.0698V17.8825C20.338 17.8825 21.0354 17.9632 21.6579 17.3407C21.6579 17.3407 21.9461 17.0352 22.0095 16.6317V13.427H21.0758ZM20.3207 15.7441C19.8538 15.7441 19.4792 15.381 19.4792 14.9372C19.4792 14.4934 19.8596 14.1302 20.3207 14.1302C20.6493 14.1302 20.9375 14.3147 21.0758 14.5798C21.1334 14.6893 21.1622 14.8104 21.1622 14.9372C21.1622 15.064 21.1277 15.1908 21.0758 15.2945C20.9375 15.5654 20.6493 15.7441 20.3207 15.7441ZM12.8854 13.1331V12.2973C12.8854 12.2973 13.4963 12.2166 14.0381 12.8564C14.0381 12.8564 14.286 13.1677 14.3436 13.5827V13.6057V16.5568H13.3926V13.6057C13.3119 13.1907 12.8854 13.1331 12.8854 13.1331Z" fill="white"/>
</svg>
